<svg xmlns="http://www.w3.org/2000/svg" viewBox="0 0 314.29 208.17"><defs><style>.cls-1{fill:#2884bd;}</style></defs><title>Asset 1</title><g id="Layer_2" data-name="Layer 2"><g id="Layer_2-2" data-name="Layer 2"><path class="cls-1" d="M134.81,161q-11.32,16-18.32,16-6.3,0-8.54-7.28Q94.1,184.95,85.42,184.94q-9,0-9-10.42,0-4.14,3.92-19.57Q63.31,184.8,51.84,184.8q-8.12,0-8.11-9.57a40,40,0,0,1,1.54-9.14l7.41-28a2.13,2.13,0,0,1,2.1-2l5.6-.86a.83.83,0,0,0,.49-.14.69.69,0,0,1,.35-.14.75.75,0,0,1,.84.86c0-.67-.14-.15-.42,1.57l-8,29A41.26,41.26,0,0,0,52,174.8q0,4.57,4.06,4.57,7.41,0,21.13-24.7c.46-.95,1.19-2.52,2.17-4.72s2.21-5,3.7-8.42q1.83-4.86,4.48-5.29l5.32-1h.7c.37,0,.56.29.56.86a8,8,0,0,1-.14,1.72l-7.28,25.27a45.31,45.31,0,0,0-2,11.28q0,5.87,4.9,5.86,6.43,0,17.77-14.14-.28-2.57-.42-4.14c-.09-1-.14-1.76-.14-2.14a36.27,36.27,0,0,1,2.73-13.64,25.66,25.66,0,0,1,7.76-10.78l.7.28c1,1.34,1.54,3.57,1.54,6.72q0,10.56-8.81,24,.56,7.27,6,7.28,7.13,0,25-28.28a7.79,7.79,0,0,1,.14,1.86Q142,151,134.81,161Z"/><path class="cls-1" d="M132.66,159.69c-3.86,5.36-17.25,23.63-22.3,9.31-.59-1.68-2.82-2.58-4.18-1.11-4.68,5.09-15.73,18.27-24.13,13.86-7.16-3.75-.6-20.8.75-26.13.68-2.72-3.13-4.43-4.57-1.93-5.39,9.33-12,22.25-22.11,27.39-4.87,2.48-9.58.94-9.87-5.14-.17-3.6.9-7.15,1.8-10.6,1.81-6.9,3.66-13.79,5.48-20.69.34-1.26.6-4.9,1.55-5.84s6.2-1.19,6.1-1.23l-1.74-1.74.21.64c1,3.1,5.36,1.81,4.82-1.33l0-.27c-.43-2.51-4.22-2.25-4.82,0-2.72,10.19-5.54,20.38-8.28,30.58-1.35,5-4.43,15.24,3.64,16.32,6.43.86,11.58-6.21,14.87-10.66,6.66-9,11-18.82,15.63-28.93,1.28-2.78,2.26-3.45,4.94-3.95.52-.1,2.79-.52,2.79-.5l-1.64-.59-.06.18c-.15.09-.08.58-.2.72-.64.74-.82,2.85-1.09,3.78l-5.34,18.55c-1.6,5.58-5.19,15.14-.68,20.15,6.24,6.93,16.33-2.93,20.42-7.34,1.72-1.86,4.64-4.25,5.25-6.77s-.59-5.79-.48-8.32c.37-7.92,3.63-15.79,9.72-20.94l-2.43.64c.4.16.43,4.72.37,5.84a28.75,28.75,0,0,1-1.17,6.58c-1.5,5.21-4.38,9.35-6.77,14.11-2.6,5.21,2,12.11,7.89,11.82,4.3-.22,7.94-4,10.65-7,6.27-6.82,11.38-14.74,16.34-22.52l-4.57-.6c.71,4.59-4.35,10.23-6.74,13.64-1.86,2.64,2.47,5.14,4.31,2.52,3.55-5.05,8.26-10.94,7.25-17.49-.35-2.27-3.52-2.24-4.57-.6-1.92,3-20,33.21-25.51,25.66-2.22-3.05,3.26-9.74,4.53-12.71a40.88,40.88,0,0,0,3-10.2C122.35,142.5,123,135,118,133a2.49,2.49,0,0,0-2.43.64c-7.63,6.46-11.61,17.1-11.19,27,.11,2.73.64,4.14-1.08,6.51a41.69,41.69,0,0,1-5.35,5.68c-1.87,1.74-8,7.56-10.5,3.45-1.68-2.76,1-9.93,1.71-12.7.55-2,1.16-4.06,1.75-6.09,1.65-5.73,3.39-11.45,4.95-17.21,1-3.56,1.28-7.88-3.68-7.44A23.28,23.28,0,0,0,86,134.1c-4,1.64-5.26,6.54-6.83,10.12C75,153.65,70.29,163,63.63,171c-1.45,1.72-4.17,5.45-6.65,5.7-4.45.44-1.45-7.61-.88-9.76,2.73-10.25,5.58-20.49,8.32-30.73H59.6l0,.27,4.82-1.33c-1-3.21-3.57-2.57-6.21-2.09-3.57.64-6.64.45-8,4.4-2.08,6-3.32,12.49-5,18.66-1.77,6.69-4.69,14.22-4,21.18.89,8.71,9,12.11,16.57,8.46,11.26-5.44,18.69-19.26,24.62-29.55L78,154.29c-2.07,8.2-8.87,25.94,1.36,31.72,11.14,6.3,23.87-7.5,30.38-14.58l-4.18-1.1c2.17,6.15,7.34,10.79,14.19,8.53,7.48-2.47,12.89-10.61,17.24-16.65C138.86,159.6,134.52,157.1,132.66,159.69Z"/><path class="cls-1" d="M195.68,156.81q-4.06,5.72-7.28,9.64c-2.14,2.62-4,4.74-5.59,6.35q-5.75,5.58-9.38,5.57a6.84,6.84,0,0,1-5.32-2.57q-9.37,9.57-19.3,9.57-8.13,0-12.88-4.85t-4.75-13.14q0-11.85,9.79-22.42,9.79-10.86,21.27-10.86a14.21,14.21,0,0,1,11.47,5.43,19.61,19.61,0,0,1,4.34,12.85q0,7.58-5.46,17.57a3.32,3.32,0,0,0,3.5,2.85q3.21,0,9.23-7.42,2.52-3,6.51-8.36t9.45-13.21c.28,1.43.42,2,.42,1.72Q201.7,148.53,195.68,156.81Zm-34-19.71q-5.18,0-10.5,6.29a39.87,39.87,0,0,0-6.43,11A40.81,40.81,0,0,0,141.39,170q0,12.42,8.81,12.42,6.86,0,14.7-12a15.33,15.33,0,0,1-.84-5.29q0-8.7,6.71-18Q169,137.11,161.68,137.1Z"/><path class="cls-1" d="M193.52,155.55c-3.55,5-16.43,25.67-23.64,18.48a2.55,2.55,0,0,0-3.53,0c-6.44,6.33-15.68,11.63-24.81,7.43-7.86-3.61-9-13.19-7-20.7,2.24-8.46,9-16.72,16.58-21.06s17.9-4.65,22.49,4.21A19.66,19.66,0,0,1,175,157a34.17,34.17,0,0,1-1.25,4.34c-.83,2.36-2.87,4.93-3.35,7.32-.79,4,2.61,7.13,6.66,6.49,5.28-.82,9.41-7.2,12.43-11,4.87-6.18,9.42-12.61,13.91-19.06l-4.56-.6c.1.57.22,1.15.37,1.71a2.55,2.55,0,0,0,2.41,1.84h0l-2.5-2.5c-.3,3.46-3.75,7.32-5.68,10s2.46,5.12,4.32,2.52c2.63-3.69,6-7.85,6.36-12.54a2.52,2.52,0,0,0-2.5-2.5h0l2.41,1.83c-.15-.56-.27-1.13-.37-1.71-.47-2.28-3.44-2.22-4.57-.6-4.52,6.48-9.06,13-14,19.15-2,2.51-4,5.26-6.6,7.21-.83.63-2.27,2.12-2.9.65-.24-.56,1.74-3.72,2.09-4.57,4.53-11,4-26.83-8.79-32.1-23.23-9.59-51.78,28.57-35.85,48.13,10.14,12.47,27.31,5.88,36.81-3.45h-3.53c11.64,11.6,25.75-11.48,31.49-19.5C199.71,155.45,195.38,153,193.52,155.55Z"/><path class="cls-1" d="M161.68,134.6c-19.81,1.34-34.35,52.34-10.56,50.22,4.93-.44,8.92-4.13,11.94-7.75,1.59-1.9,3.95-4.2,4.34-6.69.24-1.55-.83-3.62-.84-5.29a22.24,22.24,0,0,1,.65-5.2A28.64,28.64,0,0,1,170,153c.8-1.46,2.51-3.1,2.94-4.61.62-2.2-.23-4.53-1.13-6.6a11.05,11.05,0,0,0-10.12-7.16c-3.22-.17-3.21,4.83,0,5,3.76.21,7,4.14,5.86,7.78-.68,2.16-2.57,4.25-3.48,6.39a30.64,30.64,0,0,0-1.83,5.53c-.76,3.43,0,6.57-.24,9.92s-5.33,8-8.37,9.66c-9.87,5.28-10.29-9.06-9.16-15,1.53-8,7.24-23.6,17.22-24.27C164.87,139.39,164.9,134.39,161.68,134.6Z"/><path class="cls-1" d="M244.23,151.38q-.28.72-5.46,7.71-5.6,7.71-9.3,12.57a80.65,80.65,0,0,1-5.67,6.86q-6.57,6.42-12.31,6.42-9.11,0-9.1-8.85,0-10.14,14.7-32.42-8.68,5.57-13.16,5.57c-3.63,0-5.45-1.66-5.45-5a12.62,12.62,0,0,1,.63-3.93,14.41,14.41,0,0,1,1.74-3.57,10.72,10.72,0,0,1,2.66-2.71,6.87,6.87,0,0,1,3.5-1.21l.14.43a16.47,16.47,0,0,0-1.54,4.57q0,3.57,4.06,3.57,3.21,0,16.65-4.86l.56.43q-15.52,33.71-15.53,38.7,0,4,3.78,4t11.33-9.14q4.47-5.57,19.45-26.71a3.35,3.35,0,0,1,.42,1.72A11.77,11.77,0,0,1,244.23,151.38Z"/><path class="cls-1" d="M242.07,150.12c-3.16,6.08-8.27,11.63-12.37,17.11-4.33,5.79-10.07,15-18.21,15.21-17.16.47,4.66-32.78,7.75-37.51,1.38-2.09-1.33-4.72-3.42-3.42-3.09,1.94-7.94,5.6-11.89,5.23-3.12-.29-3.23-3.21-2.41-5.76.94-3,3-5.26,6.16-5.75l-3.08-1.75c.15.47-1.22,2.39-1.35,3.34a6.68,6.68,0,0,0,.23,3.2,5.87,5.87,0,0,0,5.57,3.82,20.13,20.13,0,0,0,6.51-1.1c1.81-.51,9.86-3.77,10.06-3.62l-.9-3.42c-4.61,10-9.29,20.1-13.2,30.44-1.56,4.14-4.87,11.12-.49,14.68,6.66,5.4,15-5.74,18.37-10,6.52-8.33,12.55-17.08,18.67-25.71l-4.57-.6c.8,2-.45,3.92-1.43,5.64-1.59,2.8,2.73,5.32,4.32,2.52s3.24-6.23,1.93-9.49a2.54,2.54,0,0,0-4.57-.6c-5.08,7.17-10.16,14.34-15.4,21.4-1.84,2.48-13.33,16.9-14.5,11.57-.64-2.93,2.75-8.78,3.79-11.37,3.51-8.76,7.46-17.35,11.4-25.93a2.6,2.6,0,0,0-.9-3.42c-1.95-1.49-3.79-.2-5.88.53-2.82,1-5.66,1.95-8.54,2.73-1.25.34-4.79,1.8-5.6-.24-.6-1.51,1.94-3.72,1.3-5.67a2.58,2.58,0,0,0-3.07-1.74c-7,1.11-13.53,11.53-9.27,18.14,4.82,7.46,16.21.45,21.27-2.72l-3.42-3.42c-5,7.65-26.55,39-7.82,44.47,9.15,2.68,16.9-4.31,22.15-10.91,3.1-3.9,6.05-7.92,9-11.94,2.69-3.68,6-7.33,8.13-11.39C247.87,149.79,243.56,147.26,242.07,150.12Z"/><path class="cls-1" d="M253,195.17,67.31,195a55,55,0,0,1-55-55c0-21,13.71-42.91,32.6-52l2.87-1.38V83.48c0-.64,0-1.3.08-2l.05-.81-.06-1.06c0-.41-.07-.82-.07-1.24A35.52,35.52,0,0,1,83.3,42.94a34.28,34.28,0,0,1,4.65.34c.39,0,.79.11,1.18.18a34,34,0,0,1,4,.89c.18.06.36.09.54.14a34.48,34.48,0,0,1,4.23,1.63c.36.16.71.34,1.06.51a33.79,33.79,0,0,1,3.56,2,35.43,35.43,0,0,1,16.26,29.77,5.07,5.07,0,1,0,10.13,0A45.5,45.5,0,0,0,112.7,43.59c14.53-19,38.45-31.06,62.26-31.06,39.25,0,71.85,31.09,75.25,70.38a97.15,97.15,0,0,0-20.69.63,5.07,5.07,0,1,0,1.52,10,92.71,92.71,0,0,1,23.73,0c17.94,1.68,33.71,17.38,33.21,15.57-.07-.25,2-5.4,2-6.13.14-1.57-5.24-6.4-5.71-6.64-7.29-6.93-13.76-9.28-23.69-11.89C257.88,38.85,220.28,2.39,175,2.39a89.34,89.34,0,0,0-70.68,35.52c-.38-.2-.78-.34-1.17-.52-1-.49-2-1-3.06-1.36-.58-.23-1.15-.44-1.74-.64-1-.36-2.07-.68-3.13-1-.59-.16-1.16-.32-1.75-.45-1.14-.26-2.31-.46-3.48-.63-.52-.08-1-.18-1.54-.24a47.86,47.86,0,0,0-5.11-.3A45.66,45.66,0,0,0,37.69,78.41c0,.65,0,1.28.08,1.91v0C16.69,91.84,2.21,115.91,2.21,140c0,35.9,29.25,65.66,65.15,65.66l185.56-.12C253,200.83,253.05,200.71,253,195.17Z"/><path class="cls-1" d="M253,192.67l-102.82-.11-64.08-.06c-15.8,0-31.4,1.09-45.64-7.42A52.79,52.79,0,0,1,15,135.7c1.84-20.79,15.64-38.07,34.05-46.87a2.46,2.46,0,0,0,1.23-2.16c0-10.37.31-20.08,7.08-28.66A33,33,0,0,1,116,74.15c.62,4.74.31,10.34,6.18,11.6a7.58,7.58,0,0,0,9.15-6.66c1.81-13.68-7-28.64-16.86-37.27v3.54c19.71-25.22,54-37.06,84.56-26.14,27.09,9.68,46,35.28,48.69,63.69l2.5-2.5a100.64,100.64,0,0,0-19.09.41c-4.17.52-8,2.44-8.38,7.13a7.61,7.61,0,0,0,6,8c2.6.53,5.32-.29,7.93-.47a91.5,91.5,0,0,1,10.21-.08,57.61,57.61,0,0,1,28,8.11c3.25,1.94,6.3,4.14,9.36,6.35,1.52,1.1,3,2.51,5,1.55a2.46,2.46,0,0,0,1.24-2.16c0-1.06,2.24-4.64,1.89-6.91-.46-2.95-3.81-5.53-5.89-7.38-7.54-6.72-15.55-10.3-25.25-12.89l1.83,2.41a91.45,91.45,0,0,0-38.22-68.7,87.86,87.86,0,0,0-81.55-10,93.62,93.62,0,0,0-41.17,30.9l3.42-.9c-16.7-7.41-35.12-7.37-50.31,3.63-13.42,9.71-20,24.69-20,41l1.24-2.16C3,97-10.61,141.13,9.19,174.63a68.76,68.76,0,0,0,40,31c7.45,2.12,15,2.53,22.7,2.52l134.69-.09,46.34,0a2.54,2.54,0,0,0,2.5-2.5c0-3.46.11-6.92.1-10.38,0-3.22-5-3.22-5,0,0,3.46-.06,6.92-.1,10.38l2.5-2.5-107.19.07-63.78,0c-4.68,0-9.35,0-14,0a63.18,63.18,0,0,1-38-12.59A63.86,63.86,0,0,1,4.73,138.53c.56-23,14.36-44.84,34.3-56a2.5,2.5,0,0,0,1.24-2.16C40.27,66,45.72,52.7,57.49,43.9,71.09,33.73,87.83,33.33,103,40.07a2.61,2.61,0,0,0,3.42-.9c17.75-23.24,46.91-36.6,76.15-33.93,25.23,2.3,48.38,17,62,38.19a86.23,86.23,0,0,1,13.45,41,2.58,2.58,0,0,0,1.84,2.41c8.84,2.36,16.22,5.47,23.09,11.64.75.67,1.49,1.33,2.2,2S287.4,103,287.4,103c.09,2.07-2,4-1.92,6.19l1.24-2.16c1.84-.91,2.34.67,1.07-.81a13.71,13.71,0,0,0-2.25-1.65c-2.46-1.79-5-3.52-7.57-5.11-6.44-3.91-13.53-7.1-21-8.19a98.8,98.8,0,0,0-18.43-1c-2,.09-4.24.65-6.25.54l-2,.22q-2.67-5.66,1.51-5.36a21.28,21.28,0,0,1,4.46-.43,108.55,108.55,0,0,1,14,.08,2.51,2.51,0,0,0,2.5-2.5,81.3,81.3,0,0,0-33.59-58.78,77.21,77.21,0,0,0-70.79-9.33,83.74,83.74,0,0,0-37.4,27,2.55,2.55,0,0,0,0,3.54,45.15,45.15,0,0,1,11.91,15.9A41.86,41.86,0,0,1,126.34,76a8.08,8.08,0,0,1,.07,2.4c-1,2.93-4.09,2.78-5.13,0-.85-2.24-.37-5.77-.91-8.24a37.44,37.44,0,0,0-2.9-8.27,38,38,0,0,0-10.81-13.35c-17.3-13.58-43-9.19-55.1,9.05-5.93,9-6.24,18.74-6.24,29.07l1.24-2.16c-32.12,15.36-47.82,56-27.24,87.07A58,58,0,0,0,59.76,197a114.68,114.68,0,0,0,14.94.53l134.12.13,44.2,0C256.24,197.67,256.24,192.67,253,192.67Z"/><path class="cls-1" d="M270.68,176.52a32.32,32.32,0,0,1,1-5.57L288,109.12a9.34,9.34,0,0,1-1.32-5.62c-1.87-.28-3.73-.6-5.59-1l-.12,0-8.6,34.1c-3.35-1.33-5.78-2-7.27-2q-10.36,0-20.29,10.57-11.06,11.72-11,25.28a18.76,18.76,0,0,0,2.51,10.13,10.35,10.35,0,0,0,9,4.29q8.67,0,20.29-20.57-3.22,10.29-3.22,14.29,0,6.42,6.86,6.42a10.68,10.68,0,0,0,2.86-.41c1.4-.56,4.74-5.06,4.42-5.88-.33.11-3.44,1.55-3.51,1.58C271.3,180.86,270.22,180.27,270.68,176.52Zm-3.36-23.78q-2.25,5.64-5,11.07-8.11,16.42-15.11,16.42-4.75,0-4.76-6.57,0-12.28,12.31-27.42,6.72-8.28,11.2-8.28,2.94,0,5.32,3.43Q269.56,147.09,267.32,152.74Z"/><path class="cls-1" d="M273.18,176.52c.54-4.69,2.05-9.31,3.25-13.86l6.05-22.93,5.91-22.37c.55-2.1,1.25-4.23,1.68-6.36.55-2.77-.91-4.6-.91-7.5a2.5,2.5,0,0,0-1.83-2.41,48,48,0,0,1-5.72-1.07,2.51,2.51,0,0,0-3.07,1.75l-8.6,34.1,3.08-1.75C262.1,130,252.47,134,244.35,142s-14.09,19.15-13,30.93c.81,8.58,7.23,16.61,16.73,14,9.17-2.53,15.25-13.87,19.57-21.39l-4.57-1.93c-1.88,6.09-7,18.53.84,22.73,5.82,3.12,14.58-.54,15-7.65.09-1.48-1.69-3-3.16-2.41a19.74,19.74,0,0,0-2.45,1.07c-2.08,1.24-.26,1-.13-.79.23-3.21-4.77-3.2-5,0-.18,2.44,0,5.54,2.84,6.32,2.08.56,4.26-1,6.07-1.78l-3.17-2.41c-.08,1.49-2.49,3.14-3.66,3.52-3.26,1.06-5.5-.81-5.47-4,0-4.41,1.84-9.09,3.12-13.23.84-2.72-3.16-4.38-4.57-1.93-3.58,6.24-7.72,14-14.08,17.92a8.18,8.18,0,0,1-9,.08c-3.95-2.68-4.21-8.56-3.9-12.84.67-9.12,5.73-17.08,12.23-23.26,3.32-3.16,7.21-6,11.7-7.18,4.26-1.15,7.45-.27,11.44,1.25a2.51,2.51,0,0,0,3.07-1.75l8.6-34.1-3.08,1.75a48,48,0,0,0,5.72,1.07l-1.84-2.41a15.09,15.09,0,0,0,.75,5c.17.53.68.92.64,0a7.44,7.44,0,0,1-.34,1.29c-.4,2.31-1.22,4.62-1.82,6.88l-6,22.67c-3.21,12.12-7.78,24.64-9.23,37.15C267.81,179.71,272.81,179.68,273.18,176.52Z"/><path class="cls-1" d="M264.91,152.07c-2.82,7-6,14.36-10.62,20.35-1.31,1.71-3.32,4.42-5.55,5-3.85,1-4-2.54-3.75-5.61.48-6.66,3.78-12.92,7.46-18.36a57.35,57.35,0,0,1,7.54-9.33c3.13-3,6.08-5.26,9.48-1l-.65-2.43q-1.72,5.76-3.91,11.35c-1.17,3,3.66,4.3,4.82,1.33,2-5.08,6.51-11.74,1.28-16-3.22-2.6-7-2.28-10.4-.22-5.19,3.16-9.14,8.77-12.48,13.72-3.47,5.15-6.45,10.91-7.64,17.05-1.37,7.11.57,18,10.34,13.94,4.12-1.71,7.06-5.71,9.41-9.33a113.65,113.65,0,0,0,9.49-19.18C270.93,150.42,266.1,149.13,264.91,152.07Z"/><ellipse class="cls-1" cx="252.92" cy="200.55" rx="5.24" ry="5.13"/><path class="cls-1" d="M255.66,200.55c-.19,3.39-5.47,3.41-5.47,0s5.28-3.39,5.47,0c.18,3.2,5.18,3.22,5,0a7.74,7.74,0,1,0-8,7.61,7.82,7.82,0,0,0,8-7.61C260.84,197.33,255.84,197.34,255.66,200.55Z"/><ellipse class="cls-1" cx="270.19" cy="200.55" rx="5.24" ry="5.13"/><path class="cls-1" d="M272.92,200.55c-.18,3.39-5.47,3.41-5.47,0s5.29-3.39,5.47,0c.18,3.2,5.18,3.22,5,0a7.74,7.74,0,1,0-8,7.61,7.82,7.82,0,0,0,8-7.61C278.1,197.33,273.1,197.34,272.92,200.55Z"/><ellipse class="cls-1" cx="288.72" cy="200.55" rx="5.24" ry="5.13"/><path class="cls-1" d="M291.46,200.55c-.19,3.39-5.47,3.41-5.47,0s5.28-3.39,5.47,0c.18,3.2,5.18,3.22,5,0a7.74,7.74,0,1,0-8,7.61,7.82,7.82,0,0,0,8-7.61C296.64,197.33,291.64,197.34,291.46,200.55Z"/><ellipse class="cls-1" cx="306.55" cy="200.55" rx="5.24" ry="5.13"/><path class="cls-1" d="M309.29,200.55c-.19,3.39-5.47,3.41-5.47,0s5.28-3.39,5.47,0c.18,3.2,5.18,3.22,5,0a7.74,7.74,0,1,0-8,7.61,7.82,7.82,0,0,0,8-7.61C314.47,197.33,309.47,197.34,309.29,200.55Z"/></g></g></svg>